<?xml version="1.0" encoding="UTF-8" standalone="no"?>
<!DOCTYPE svg PUBLIC "-//W3C//DTD SVG 1.1//EN"
 "http://www.w3.org/Graphics/SVG/1.1/DTD/svg11.dtd">
<!-- Generated by graphviz version 2.38.0 (20140413.2041)
 -->
<!-- Title: %3 Pages: 1 -->
<svg width="1271pt" height="674pt"
 viewBox="0.00 0.00 915.00 485.00" xmlns="http://www.w3.org/2000/svg" xmlns:xlink="http://www.w3.org/1999/xlink">
<g id="graph0" class="graph" transform="scale(1.38889 1.38889) rotate(0) translate(4 481)">
<title>%3</title>
<polygon fill="white" stroke="none" points="-4,4 -4,-481 911,-481 911,4 -4,4"/>
<!-- node6801 -->
<g id="node1" class="node"><title>node6801</title>
<ellipse fill="none" stroke="black" cx="548.5" cy="-459" rx="102.082" ry="18"/>
<text text-anchor="middle" x="548.5" y="-455.3" font-family="Monospace" font-size="14.00">PersistentHashMap</text>
</g>
<!-- node6802 -->
<g id="node2" class="node"><title>node6802</title>
<polygon fill="none" stroke="black" points="689,-405 408,-405 408,-352 689,-352 689,-405"/>
<text text-anchor="middle" x="548.5" y="-389.8" font-family="Monospace" font-size="14.00">Level 0 BitmapIndexedNode:</text>
<text text-anchor="middle" x="548.5" y="-374.8" font-family="Monospace" font-size="14.00">01100001000100100000000000000000</text>
<text text-anchor="middle" x="548.5" y="-359.8" font-family="Monospace" font-size="14.00">5/8</text>
</g>
<!-- node6801&#45;&gt;node6802 -->
<g id="edge1" class="edge"><title>node6801&#45;&gt;node6802</title>
<path fill="none" stroke="black" d="M548.5,-440.967C548.5,-433.447 548.5,-424.306 548.5,-415.397"/>
<polygon fill="black" stroke="black" points="552,-415.156 548.5,-405.156 545,-415.156 552,-415.156"/>
</g>
<!-- node6803 -->
<g id="node3" class="node"><title>node6803</title>
<polygon fill="none" stroke="black" points="281,-316 0,-316 0,-248 281,-248 281,-316"/>
<text text-anchor="middle" x="140.5" y="-300.8" font-family="Monospace" font-size="14.00">(00000)</text>
<text text-anchor="middle" x="140.5" y="-285.8" font-family="Monospace" font-size="14.00">Level 1 BitmapIndexedNode:</text>
<text text-anchor="middle" x="140.5" y="-270.8" font-family="Monospace" font-size="14.00">00000000100000000010000000000000</text>
<text text-anchor="middle" x="140.5" y="-255.8" font-family="Monospace" font-size="14.00">2/4</text>
</g>
<!-- node6802&#45;&gt;node6803 -->
<g id="edge2" class="edge"><title>node6802&#45;&gt;node6803</title>
<path fill="none" stroke="black" d="M438.358,-351.989C393.094,-341.505 339.947,-329.196 291.174,-317.899"/>
<polygon fill="black" stroke="black" points="291.692,-314.426 281.16,-315.579 290.112,-321.246 291.692,-314.426"/>
</g>
<!-- node6808 -->
<g id="node8" class="node"><title>node6808</title>
<polygon fill="none" stroke="black" points="390,-300 299,-300 299,-264 390,-264 390,-300"/>
<text text-anchor="middle" x="344.5" y="-278.3" font-family="Monospace" font-size="14.00">:h(10100)</text>
</g>
<!-- node6802&#45;&gt;node6808 -->
<g id="edge3" class="edge"><title>node6802&#45;&gt;node6808</title>
<path fill="none" stroke="black" d="M479.52,-351.892C453.695,-341.613 424.362,-329.099 398.5,-316 392.244,-312.831 385.751,-309.191 379.527,-305.512"/>
<polygon fill="black" stroke="black" points="381.028,-302.329 370.661,-300.143 377.402,-308.317 381.028,-302.329"/>
</g>
<!-- node6810 -->
<g id="node10" class="node"><title>node6810</title>
<polygon fill="none" stroke="black" points="689,-316 408,-316 408,-248 689,-248 689,-316"/>
<text text-anchor="middle" x="548.5" y="-300.8" font-family="Monospace" font-size="14.00">(00010)</text>
<text text-anchor="middle" x="548.5" y="-285.8" font-family="Monospace" font-size="14.00">Level 1 BitmapIndexedNode:</text>
<text text-anchor="middle" x="548.5" y="-270.8" font-family="Monospace" font-size="14.00">00000000000000000000010000000000</text>
<text text-anchor="middle" x="548.5" y="-255.8" font-family="Monospace" font-size="14.00">1/4</text>
</g>
<!-- node6802&#45;&gt;node6810 -->
<g id="edge4" class="edge"><title>node6802&#45;&gt;node6810</title>
<path fill="none" stroke="black" d="M548.5,-351.677C548.5,-343.822 548.5,-334.964 548.5,-326.285"/>
<polygon fill="black" stroke="black" points="552,-326.251 548.5,-316.251 545,-326.251 552,-326.251"/>
</g>
<!-- node6816 -->
<g id="node16" class="node"><title>node6816</title>
<polygon fill="none" stroke="black" points="798,-300 707,-300 707,-264 798,-264 798,-300"/>
<text text-anchor="middle" x="752.5" y="-278.3" font-family="Monospace" font-size="14.00">:i(11101)</text>
</g>
<!-- node6802&#45;&gt;node6816 -->
<g id="edge5" class="edge"><title>node6802&#45;&gt;node6816</title>
<path fill="none" stroke="black" d="M616.58,-351.882C642.315,-341.556 671.623,-329.013 697.5,-316 703.85,-312.807 710.452,-309.155 716.787,-305.471"/>
<polygon fill="black" stroke="black" points="719.01,-308.221 725.815,-300.1 715.431,-302.205 719.01,-308.221"/>
</g>
<!-- node6818 -->
<g id="node18" class="node"><title>node6818</title>
<polygon fill="none" stroke="black" points="907,-300 816,-300 816,-264 907,-264 907,-300"/>
<text text-anchor="middle" x="861.5" y="-278.3" font-family="Monospace" font-size="14.00">:a(11110)</text>
</g>
<!-- node6802&#45;&gt;node6818 -->
<g id="edge6" class="edge"><title>node6802&#45;&gt;node6818</title>
<path fill="none" stroke="black" d="M689.198,-352.179C727.965,-343.007 769.512,-331.084 806.5,-316 813.589,-313.109 820.837,-309.391 827.647,-305.498"/>
<polygon fill="black" stroke="black" points="829.819,-308.278 836.607,-300.143 826.228,-302.269 829.819,-308.278"/>
</g>
<!-- node6804 -->
<g id="node4" class="node"><title>node6804</title>
<polygon fill="none" stroke="black" points="132,-196 41,-196 41,-160 132,-160 132,-196"/>
<text text-anchor="middle" x="86.5" y="-174.3" font-family="Monospace" font-size="14.00">:g(01101)</text>
</g>
<!-- node6803&#45;&gt;node6804 -->
<g id="edge7" class="edge"><title>node6803&#45;&gt;node6804</title>
<path fill="none" stroke="black" d="M122.968,-247.884C115.632,-234.028 107.23,-218.156 100.34,-205.143"/>
<polygon fill="black" stroke="black" points="103.4,-203.442 95.6279,-196.242 97.2136,-206.717 103.4,-203.442"/>
</g>
<!-- node6806 -->
<g id="node6" class="node"><title>node6806</title>
<polygon fill="none" stroke="black" points="241,-196 150,-196 150,-160 241,-160 241,-196"/>
<text text-anchor="middle" x="195.5" y="-174.3" font-family="Monospace" font-size="14.00">:c(10111)</text>
</g>
<!-- node6803&#45;&gt;node6806 -->
<g id="edge8" class="edge"><title>node6803&#45;&gt;node6806</title>
<path fill="none" stroke="black" d="M158.357,-247.884C165.828,-234.028 174.386,-218.156 181.403,-205.143"/>
<polygon fill="black" stroke="black" points="184.538,-206.705 186.203,-196.242 178.376,-203.382 184.538,-206.705"/>
</g>
<!-- node6805 -->
<g id="node5" class="node"><title>node6805</title>
<ellipse fill="none" stroke="black" cx="86.5" cy="-90" rx="27" ry="18"/>
<text text-anchor="middle" x="86.5" y="-86.3" font-family="Monospace" font-size="14.00">7</text>
</g>
<!-- node6804&#45;&gt;node6805 -->
<g id="edge9" class="edge"><title>node6804&#45;&gt;node6805</title>
<path fill="none" stroke="black" d="M86.5,-159.597C86.5,-147.746 86.5,-131.817 86.5,-118.292"/>
<polygon fill="black" stroke="black" points="90.0001,-118.084 86.5,-108.084 83.0001,-118.084 90.0001,-118.084"/>
</g>
<!-- node6807 -->
<g id="node7" class="node"><title>node6807</title>
<ellipse fill="none" stroke="black" cx="195.5" cy="-90" rx="27" ry="18"/>
<text text-anchor="middle" x="195.5" y="-86.3" font-family="Monospace" font-size="14.00">3</text>
</g>
<!-- node6806&#45;&gt;node6807 -->
<g id="edge10" class="edge"><title>node6806&#45;&gt;node6807</title>
<path fill="none" stroke="black" d="M195.5,-159.597C195.5,-147.746 195.5,-131.817 195.5,-118.292"/>
<polygon fill="black" stroke="black" points="199,-118.084 195.5,-108.084 192,-118.084 199,-118.084"/>
</g>
<!-- node6809 -->
<g id="node9" class="node"><title>node6809</title>
<ellipse fill="none" stroke="black" cx="344.5" cy="-178" rx="27" ry="18"/>
<text text-anchor="middle" x="344.5" y="-174.3" font-family="Monospace" font-size="14.00">8</text>
</g>
<!-- node6808&#45;&gt;node6809 -->
<g id="edge11" class="edge"><title>node6808&#45;&gt;node6809</title>
<path fill="none" stroke="black" d="M344.5,-263.697C344.5,-247.923 344.5,-224.364 344.5,-206.094"/>
<polygon fill="black" stroke="black" points="348,-206.047 344.5,-196.047 341,-206.047 348,-206.047"/>
</g>
<!-- node6811 -->
<g id="node11" class="node"><title>node6811</title>
<polygon fill="none" stroke="black" points="689,-212 408,-212 408,-144 689,-144 689,-212"/>
<text text-anchor="middle" x="548.5" y="-196.8" font-family="Monospace" font-size="14.00">(00000)</text>
<text text-anchor="middle" x="548.5" y="-181.8" font-family="Monospace" font-size="14.00">Level 2 BitmapIndexedNode:</text>
<text text-anchor="middle" x="548.5" y="-166.8" font-family="Monospace" font-size="14.00">00000000000000000000000100000001</text>
<text text-anchor="middle" x="548.5" y="-151.8" font-family="Monospace" font-size="14.00">2/4</text>
</g>
<!-- node6810&#45;&gt;node6811 -->
<g id="edge12" class="edge"><title>node6810&#45;&gt;node6811</title>
<path fill="none" stroke="black" d="M548.5,-247.884C548.5,-239.778 548.5,-230.982 548.5,-222.472"/>
<polygon fill="black" stroke="black" points="552,-222.299 548.5,-212.299 545,-222.299 552,-222.299"/>
</g>
<!-- node6812 -->
<g id="node12" class="node"><title>node6812</title>
<polygon fill="none" stroke="black" points="539,-108 448,-108 448,-72 539,-72 539,-108"/>
<text text-anchor="middle" x="493.5" y="-86.3" font-family="Monospace" font-size="14.00">:d(00000)</text>
</g>
<!-- node6811&#45;&gt;node6812 -->
<g id="edge13" class="edge"><title>node6811&#45;&gt;node6812</title>
<path fill="none" stroke="black" d="M527.393,-143.996C521.637,-134.996 515.486,-125.378 510.025,-116.839"/>
<polygon fill="black" stroke="black" points="512.966,-114.942 504.63,-108.403 507.069,-118.714 512.966,-114.942"/>
</g>
<!-- node6814 -->
<g id="node14" class="node"><title>node6814</title>
<polygon fill="none" stroke="black" points="648,-108 557,-108 557,-72 648,-72 648,-108"/>
<text text-anchor="middle" x="602.5" y="-86.3" font-family="Monospace" font-size="14.00">:f(01000)</text>
</g>
<!-- node6811&#45;&gt;node6814 -->
<g id="edge14" class="edge"><title>node6811&#45;&gt;node6814</title>
<path fill="none" stroke="black" d="M569.223,-143.996C574.815,-135.091 580.787,-125.58 586.106,-117.109"/>
<polygon fill="black" stroke="black" points="589.219,-118.734 591.572,-108.403 583.29,-115.011 589.219,-118.734"/>
</g>
<!-- node6813 -->
<g id="node13" class="node"><title>node6813</title>
<ellipse fill="none" stroke="black" cx="493.5" cy="-18" rx="27" ry="18"/>
<text text-anchor="middle" x="493.5" y="-14.3" font-family="Monospace" font-size="14.00">4</text>
</g>
<!-- node6812&#45;&gt;node6813 -->
<g id="edge15" class="edge"><title>node6812&#45;&gt;node6813</title>
<path fill="none" stroke="black" d="M493.5,-71.6966C493.5,-63.9827 493.5,-54.7125 493.5,-46.1124"/>
<polygon fill="black" stroke="black" points="497,-46.1043 493.5,-36.1043 490,-46.1044 497,-46.1043"/>
</g>
<!-- node6815 -->
<g id="node15" class="node"><title>node6815</title>
<ellipse fill="none" stroke="black" cx="602.5" cy="-18" rx="27" ry="18"/>
<text text-anchor="middle" x="602.5" y="-14.3" font-family="Monospace" font-size="14.00">6</text>
</g>
<!-- node6814&#45;&gt;node6815 -->
<g id="edge16" class="edge"><title>node6814&#45;&gt;node6815</title>
<path fill="none" stroke="black" d="M602.5,-71.6966C602.5,-63.9827 602.5,-54.7125 602.5,-46.1124"/>
<polygon fill="black" stroke="black" points="606,-46.1043 602.5,-36.1043 599,-46.1044 606,-46.1043"/>
</g>
<!-- node6817 -->
<g id="node17" class="node"><title>node6817</title>
<ellipse fill="none" stroke="black" cx="752.5" cy="-178" rx="27" ry="18"/>
<text text-anchor="middle" x="752.5" y="-174.3" font-family="Monospace" font-size="14.00">9</text>
</g>
<!-- node6816&#45;&gt;node6817 -->
<g id="edge17" class="edge"><title>node6816&#45;&gt;node6817</title>
<path fill="none" stroke="black" d="M752.5,-263.697C752.5,-247.923 752.5,-224.364 752.5,-206.094"/>
<polygon fill="black" stroke="black" points="756,-206.047 752.5,-196.047 749,-206.047 756,-206.047"/>
</g>
<!-- node6819 -->
<g id="node19" class="node"><title>node6819</title>
<ellipse fill="none" stroke="black" cx="861.5" cy="-178" rx="27" ry="18"/>
<text text-anchor="middle" x="861.5" y="-174.3" font-family="Monospace" font-size="14.00">1</text>
</g>
<!-- node6818&#45;&gt;node6819 -->
<g id="edge18" class="edge"><title>node6818&#45;&gt;node6819</title>
<path fill="none" stroke="black" d="M861.5,-263.697C861.5,-247.923 861.5,-224.364 861.5,-206.094"/>
<polygon fill="black" stroke="black" points="865,-206.047 861.5,-196.047 858,-206.047 865,-206.047"/>
</g>
</g>
</svg>
